<svg width="20" height="20" viewBox="0 0 20 20" fill="none" xmlns="http://www.w3.org/2000/svg">
<rect width="20" height="20" fill="black" fill-opacity="0.4"/>
<path fill-rule="evenodd" clip-rule="evenodd" d="M12.9701 9.02981L13.5 8.49991C14.0523 7.94762 14.0523 7.05219 13.5 6.49991C12.9477 5.94762 12.0523 5.94762 11.5 6.49991L10.9575 7.0424C11.4188 7.88305 12.1173 8.57587 12.9701 9.02981ZM9.50209 8.49783L6.8564 11.1435C6.43134 11.5686 6.21881 11.7811 6.07907 12.0422C5.93934 12.3033 5.88039 12.598 5.7625 13.1875L5.6471 13.7645C5.58058 14.0971 5.54732 14.2634 5.64193 14.358C5.73654 14.4526 5.90284 14.4193 6.23545 14.3528L6.23545 14.3528L6.81243 14.2374L6.81244 14.2374C7.40189 14.1195 7.69661 14.0606 7.95771 13.9209C8.2188 13.7811 8.43132 13.5686 8.85636 13.1436L8.85638 13.1435L8.8564 13.1435L11.5108 10.4891C10.71 9.96895 10.0267 9.29005 9.50209 8.49783Z" fill="#C4C4C4" fill-opacity="0.7"/>
</svg>
